<svg xmlns="http://www.w3.org/2000/svg" viewBox="0 0 1186.17 183.57"><path d="M75.78,96.66a4.14,4.14,0,0,1,7.62,3.22,39.1,39.1,0,0,0,11.17,45.4,4.14,4.14,0,1,1-5.23,6.41,47.37,47.37,0,0,1-13.56-55ZM136,159.42a4.15,4.15,0,0,1-2.9-7.77,38.64,38.64,0,0,0,6.81-3.31,39.11,39.11,0,0,0,6-4.58,4.13,4.13,0,1,1,5.61,6.07,47.09,47.09,0,0,1-7.3,5.54,47.75,47.75,0,0,1-8.25,4ZM174.22,96A4.14,4.14,0,0,1,166,95c.15-1.08.25-1.87.3-2.38s.14-1.32.24-2.38a4.14,4.14,0,0,1,8.24.74q-.09.88-.27,2.55c-.13,1.14-.23,2-.3,2.54Zm-66.73-47.1a4.15,4.15,0,0,1,7.32-3.9l.81,1.59c.33.66.59,1.19.78,1.6a4.14,4.14,0,0,1-7.48,3.53c-.28-.6-.51-1.08-.68-1.42l-.75-1.4Zm6.44,17.94a4.13,4.13,0,0,1,8.11-1.6A73,73,0,0,1,115.36,113a4.51,4.51,0,0,0,5.38,6.35,4.42,4.42,0,0,0,2.62-2.23,80.48,80.48,0,0,0,3.79-8.52,82,82,0,0,0,2.79-8.82,4.14,4.14,0,0,1,8,2,90.69,90.69,0,0,1-7.24,19.08A12.77,12.77,0,0,1,108,109.27a64.62,64.62,0,0,0,5.93-42.41ZM37.38,154.3a4.14,4.14,0,0,1-7.47,3.56,100.81,100.81,0,0,1-8-24.6A4.13,4.13,0,1,1,30,131.75a91.73,91.73,0,0,0,7.36,22.55Zm-8.91-39.23a4.13,4.13,0,1,1-8.26,0,97.8,97.8,0,0,1,4.87-30.67A4.13,4.13,0,1,1,32.94,87a89.34,89.34,0,0,0-3.34,13.86,90.45,90.45,0,0,0-1.13,14.23ZM118,171.42a4.13,4.13,0,1,1-.17,8.26q-1.12,0-2.22-.09c-.77,0-1.5-.09-2.2-.16a4.14,4.14,0,0,1,.74-8.24l1.93.15c.66,0,1.3.06,1.92.08ZM149.1,68.36a4.14,4.14,0,0,1,8.22-1,107.25,107.25,0,0,1,.14,23.22,106.43,106.43,0,0,1-4.85,22.67,4.14,4.14,0,0,1-7.86-2.59,98.81,98.81,0,0,0,4.35-42.33ZM104.24,30.1a4.14,4.14,0,0,1-6.11,5.58,64,64,0,0,0-8.46-7.74,65.4,65.4,0,0,0-9.75-6.14,63.69,63.69,0,0,0-6.62-2.95,65,65,0,0,0-6.87-2.2,4.13,4.13,0,0,1,2.07-8,70.36,70.36,0,0,1,7.74,2.46A73.51,73.51,0,0,1,94.68,21.38a72.51,72.51,0,0,1,9.56,8.72ZM40.39,42.16a4.14,4.14,0,0,1,2.09,8A30.34,30.34,0,0,0,27.8,59a4.13,4.13,0,1,1-6.07-5.59,38,38,0,0,1,8.51-7,38.7,38.7,0,0,1,10.15-4.3ZM8.09,149.3A4.14,4.14,0,0,1,16,146.87l.57,1.82c.06.19.27.79.62,1.79a4.15,4.15,0,0,1-7.84,2.71l-.64-1.95c-.3-.93-.51-1.57-.62-1.94Z" fill="#fff"/><path d="M49.87,171.77a4.13,4.13,0,1,1-6.32,5.33c-.83-1-1.62-2-2.38-2.93s-1.45-1.91-2.25-3a4.13,4.13,0,0,1,6.72-4.81q.9,1.28,2.07,2.76t2.16,2.67Z" fill="#fff"/><path d="M140.61,84.88a4.13,4.13,0,0,1-8.25-.44,82.54,82.54,0,0,0-25.45-64,4.14,4.14,0,1,1,5.7-6,90.58,90.58,0,0,1,28,70.42Z" fill="#fff"/><path d="M103.28,160.43a4.13,4.13,0,0,1,2.81-7.77,38.31,38.31,0,0,0,11.7,2.3,4.13,4.13,0,0,1-.31,8.26,48.19,48.19,0,0,1-7.21-.85,47.15,47.15,0,0,1-7-1.94Z" fill="#fff"/><path d="M38.54,75.09a4.13,4.13,0,0,1-7.36-3.77A21.41,21.41,0,0,1,69.27,90.88a57.28,57.28,0,0,0-3.94,9.81,56.13,56.13,0,0,0-2,10.33,4.13,4.13,0,0,1-8.22-.81,63.93,63.93,0,0,1,2.31-11.86A64.83,64.83,0,0,1,61.91,87.1a13.14,13.14,0,1,0-23.37-12Z" fill="#fff"/><path d="M99.65,2.22a4.14,4.14,0,1,1-4.5,6.94L94,8.41l-1.19-.72A4.14,4.14,0,0,1,97.07.6c.33.19.76.46,1.3.8.36.22.79.5,1.28.82Z" fill="#fff"/><path d="M89.93,119.55A4.13,4.13,0,1,1,98,117.92a21.81,21.81,0,0,0,4,8.82,21.78,21.78,0,0,0,36.71-3.23,4.13,4.13,0,1,1,7.35,3.77,30,30,0,0,1-50.65,4.44,30.27,30.27,0,0,1-5.5-12.17Z" fill="#fff"/><path d="M7.81,56.23A4.13,4.13,0,1,1,.46,52.46c.56-1.1,1.18-2.21,1.84-3.31S3.66,47,4.36,46a4.13,4.13,0,0,1,6.78,4.73c-.63.91-1.22,1.81-1.75,2.7s-1.07,1.84-1.58,2.83Z" fill="#fff"/><path d="M3.84,99a4.13,4.13,0,0,1,8.2,1,106.16,106.16,0,0,0-.84,14,107.79,107.79,0,0,0,1,14A4.13,4.13,0,0,1,4,129.13,117,117,0,0,1,3.84,99Z" fill="#fff"/><path d="M99.92,166.42a4.13,4.13,0,0,1-2.87,7.75c-1.27-.46-2.48-.95-3.64-1.47s-2.35-1.07-3.56-1.69A64.44,64.44,0,0,1,57,130.4c-.23-.84-.47-1.83-.72-3-.21-1-.41-2-.58-3A4.13,4.13,0,1,1,63.83,123c.15.86.32,1.74.52,2.63.16.72.37,1.59.65,2.6a56.19,56.19,0,0,0,28.62,35.4c1,.51,2,1,3.12,1.48s2.16.92,3.18,1.29Z" fill="#fff"/><path d="M75.85,37.82a4.14,4.14,0,0,1,4.44-7A56,56,0,0,1,100,103.6a4.13,4.13,0,0,1-7.36-3.77,47.7,47.7,0,0,0-16.79-62Z" fill="#fff"/><path d="M23.3,41.71a4.14,4.14,0,0,1-4.67-6.84A56.08,56.08,0,0,1,63.8,26.78a4.13,4.13,0,1,1-2,8,47.7,47.7,0,0,0-38.5,6.91Z" fill="#fff"/><path d="M135,29a4.14,4.14,0,0,1,7.08-4.31,108.64,108.64,0,0,1,6.5,12.4,107.6,107.6,0,0,1,4.88,13.12,4.14,4.14,0,1,1-7.93,2.37,100.13,100.13,0,0,0-4.49-12.15A98.84,98.84,0,0,0,135,29Z" fill="#fff"/><path d="M12.72,69.9a4.14,4.14,0,1,1,7.57,3.34Q19.12,75.91,18,78.78c-.72,1.92-1.36,3.8-1.94,5.63A4.14,4.14,0,1,1,8.2,82q1-3.13,2.09-6.09c.73-2,1.54-4,2.43-6Z" fill="#fff"/><path d="M52.57,7.86a4.14,4.14,0,1,1-.24,8.28l-1.31,0h-1.3a4.14,4.14,0,1,1-.09-8.28h1.46l1.48,0Z" fill="#fff"/><path d="M162.36,136.4a4.13,4.13,0,1,1-7.4-3.67q2.37-4.8,4.28-9.74t3.35-10a4.13,4.13,0,1,1,8,2.24Q169,120.56,166.94,126q-2,5.25-4.58,10.43Z" fill="#fff"/><path d="M55.81,51.17A4.14,4.14,0,0,1,57.33,43a38.66,38.66,0,0,1,5.42,1.43,39.07,39.07,0,0,1,5.15,2.2A38.71,38.71,0,0,1,88.85,83.32a4.14,4.14,0,0,1-8.26-.48A30.38,30.38,0,0,0,60.05,52.29a28.22,28.22,0,0,0-4.24-1.12Z" fill="#fff"/><path d="M46.55,79.19A4.13,4.13,0,1,1,53.9,83a73.58,73.58,0,0,0,18.25,90.1,4.14,4.14,0,0,1-5.31,6.36A81.92,81.92,0,0,1,46.55,79.19Z" fill="#fff"/><path d="M209.17,149.59V34.93h73.28V51.35H226.57V85.17h47.66v15.46H226.57v49Z" fill="#fff"/><path d="M293.64,51.35V34.93h16.42V51.35Zm0,98.24V67.94h16.42v81.65Z" fill="#fff"/><path d="M324.23,149.59V67.94h16.43v8.7Q348.45,67,362.09,67a27.7,27.7,0,0,1,17.22,6.28L367.39,87.43a17.78,17.78,0,0,0-10.79-4,15.52,15.52,0,0,0-11,4q-5,4.66-5,13v49.12Z" fill="#fff"/><path d="M374.8,135.9l11.43-11.27A35.7,35.7,0,0,0,412,135.1q16.1,0,16.1-10.47,0-7.08-10-8l-14.5-1.29q-10.47-1-16.75-6.77-6.76-6.27-6.76-16.42,0-12.07,8.7-18.84Q397,67,410.55,67q18.84,0,32,11.11L432.45,90q-10.8-7.56-21.9-7.56-14,0-14,9.82,0,6.93,10.79,7.73l13.52,1q23.68,1.78,23.68,24.48a21.33,21.33,0,0,1-9.59,18.36q-9.57,6.77-24.23,6.77Q390.42,150.56,374.8,135.9Z" fill="#fff"/><path d="M458.86,67.94V43.14h16.42v24.8H487.2V80.5H475.28V128c0,4.08,1.94,6.12,5.8,6.12h6.12v15.46h-8.53q-8.87,0-14.34-5.31t-5.47-14.82v-49h-8.21V67.94Z" fill="#fff"/><path d="M603.79,149.59,594.94,124H551.46l-8.86,25.61H524.24L566,34.93h14.49l41.71,114.66Zm-47.34-41.07h33.49L573.36,58.44H573Z" fill="#fff"/><path d="M674.16,149.59v-8.54a27.54,27.54,0,0,1-21.09,9.51q-16.76,0-24.16-14.18-3.54-6.6-3.54-27.69,0-12.4.48-16.11,1-9.49,5.31-15Q639.38,67,653.07,67q10.93,0,21.09,9.66V34.93h16.43V149.59ZM658.06,83.4q-10.3,0-13.85,7.89-2.41,5.33-2.42,17.4,0,12.23,2.42,17.55,3.54,7.89,13.85,7.89,10.14,0,13.85-8.21,2.25-5.33,2.25-17.23t-2.25-17.08Q668.21,83.41,658.06,83.4Z" fill="#fff"/><path d="M728.44,149.59l-30-81.65h17.39L735,125.11h.32l19.16-57.17h17.4l-30,81.65Z" fill="#fff"/><path d="M821.35,149.59v-7.25q-5,8.22-20.26,8.22-13.46,0-21.4-7.25-7.62-6.76-7.61-17.72,0-10.31,6.76-16.9,7.24-7.26,19.81-7.25h22.7V92.9c0-3.86-1.28-6.57-3.86-8.13s-6.87-2.33-12.88-2.33q-11.6,0-15.46,6.28l-12.89-9.83Q784.8,67,803.8,67q34,0,34,26.89v55.72Zm0-28.67v-6H801.71q-14.18,0-14.17,9.82,0,10.3,15.46,10.31,10.29,0,13.36-1.78Q821.36,130.59,821.35,120.92Z" fill="#fff"/><path d="M851.3,149.59V67.94h16.43v8.7Q875.51,67,889.13,67a26.58,26.58,0,0,1,18.48,7.24q8.91,8.06,8.91,21.1v54.27H900.1V101q0-8.2-4.51-12.88A15.43,15.43,0,0,0,884,83.4a15.6,15.6,0,0,0-11.75,4.67q-4.51,4.68-4.51,12.88v48.64Z" fill="#fff"/><path d="M933.51,67.94V43.14h16.43v24.8h11.91V80.5H949.94V128q0,6.12,5.79,6.12h6.12v15.46h-8.53q-8.87,0-14.33-5.31t-5.48-14.82v-49H925.3V67.94Z" fill="#fff"/><path d="M1016.93,149.59v-7.25q-5,8.22-20.26,8.22-13.45,0-21.4-7.25-7.62-6.76-7.62-17.72,0-10.31,6.76-16.9,7.26-7.26,19.81-7.25h22.71V92.9q0-5.79-3.87-8.13t-12.88-2.33q-11.59,0-15.46,6.28l-12.88-9.83Q980.38,67,999.38,67q34,0,34,26.89v55.72Zm0-28.67v-6H997.28q-14.17,0-14.17,9.82,0,10.3,15.46,10.31,10.3,0,13.37-1.78Q1016.92,130.59,1016.93,120.92Z" fill="#fff"/><path d="M1092.94,149.43v-8.38a27.55,27.55,0,0,1-21.1,9.51q-13.85,0-21.58-10-4.66-6-5.64-15.14-.48-3.54-.48-16.58,0-13.21.48-16.59,1-9.35,5.64-15.3,7.73-10,21.58-10,11.91,0,21.1,9.66v-8.7h16.42v79.72q0,17.55-10.63,27.21-9.66,8.7-24.8,8.7-16.26,0-28.34-13.69l12.72-10.15q7.41,7.41,16,7.41,8.37,0,13.52-4.67T1092.94,149.43Zm-32.37-40.58a93.69,93.69,0,0,0,.56,13,13.57,13.57,0,0,0,2.66,6,16.52,16.52,0,0,0,25.93,0,13.55,13.55,0,0,0,2.65-6,93.15,93.15,0,0,0,.57-13,95.05,95.05,0,0,0-.57-13.21,13.55,13.55,0,0,0-2.65-6,16.52,16.52,0,0,0-25.93,0,13.57,13.57,0,0,0-2.66,6A95.61,95.61,0,0,0,1060.57,108.85Z" fill="#fff"/><path d="M1186.17,115h-50.88q0,9.66,5.39,14.89t14.09,5.24a24,24,0,0,0,17.88-7.9l11.91,10.15q-11.43,13.2-29.47,13.21-15.13,0-24.31-8.22-11.92-10.46-11.92-33.33,0-21.9,11-32.86,9-9.18,22.71-9.17a32.75,32.75,0,0,1,23.67,9.34q10,9.83,10,25.12Zm-50.88-13.53h34.46q-.33-9-5.07-14a16.06,16.06,0,0,0-12.16-5,16.3,16.3,0,0,0-12.24,5Q1135.45,92.43,1135.29,101.44Z" fill="#fff"/></svg>